<svg width="108" height="95" viewBox="0 0 108 95" fill="none" xmlns="http://www.w3.org/2000/svg">
<rect width="108" height="95" fill="#F5F5F5"/>
<rect x="-31" y="-23" width="178" height="170" fill="white"/>
<path d="M129.74 126.674C129.74 126.674 124.6 142.604 118.99 146.254C113.38 149.904 105.16 148.364 100.99 144.174C96.8204 139.984 91.7104 134.894 91.7104 134.894L84.6104 91.0942C84.6104 91.0942 91.8104 95.9042 95.8704 100.364C99.9304 104.824 113.08 122.624 113.08 122.624L117.96 120.334L129.74 126.674Z" fill="#E0E0E0"/>
<path d="M33.7402 81.884C33.7402 81.884 13.1702 92.404 12.3802 103.674C12.1902 106.424 20.3202 142.834 24.3102 163.944C26.1302 173.554 25.6702 178.204 25.6702 178.204L25.9402 182.304C29.5802 183.944 59.1902 193.394 78.5002 191.474C100.18 189.314 96.7602 181.674 95.6702 177.474C94.5802 173.274 93.6702 154.334 93.6702 153.704C93.6702 153.074 84.9602 90.704 84.9602 90.704L66.0102 81.584L63.4202 77.774L59.7902 85.284L35.9402 75.084L33.7402 81.884Z" fill="#E0E0E0"/>
<path d="M33.7402 81.8843C47.2371 91.3809 59.6455 102.337 70.7402 114.554L70.2002 83.6243L85.4102 90.9443C85.4102 90.9443 93.1502 143.714 93.6902 153.704C94.2302 163.694 97.4702 182.704 96.6902 184.584C95.9102 186.464 87.9702 193.534 78.9302 193.954C48.4202 195.394 25.3302 186.704 25.3302 186.704L24.3302 163.944L19.5502 140.154L15.7402 126.504C15.7402 126.504 29.2702 150.424 42.4402 138.344C52.4402 129.184 48.0002 107.454 35.8902 97.0343C30.2402 92.1643 19.5002 91.3643 19.5002 91.3643C19.5002 91.3643 29.6302 82.6443 33.7402 81.8843Z" fill="#FF725E"/>
<path d="M66.0506 81.6143C66.0771 81.8402 66.0771 82.0684 66.0506 82.2943C66.0506 82.7943 66.0006 83.4443 65.9606 84.2243C65.8406 85.9143 65.7206 88.2843 65.4006 91.2943V91.6943L65.1006 91.3843L59.7406 85.9143L60.1506 85.8343L57.0906 93.7543L56.9906 94.0143L56.7406 93.8943C50.3006 90.8943 44.5506 87.9743 40.4306 85.8143C38.3706 84.7243 36.7106 83.8143 35.5706 83.1943L34.2706 82.4543C34.1157 82.3707 33.9684 82.2736 33.8306 82.1643C34.0025 82.2026 34.1677 82.2666 34.3206 82.3543L35.7406 83.0043L40.6706 85.4743C44.8306 87.5543 50.6006 90.3943 57.0306 93.4143L56.6806 93.5543C57.7606 90.7743 58.8106 88.0943 59.7606 85.6443L59.9006 85.2843L60.1706 85.5643C62.0806 87.5643 63.8506 89.4543 65.3906 91.0843L65.0406 91.1743C65.3906 88.3043 65.5806 85.8543 65.7606 84.1743C65.8406 83.3943 65.9106 82.7543 65.9706 82.2543C65.9715 82.0385 65.9983 81.8236 66.0506 81.6143Z" fill="#263238"/>
<path d="M17.8002 95.0843C18.5702 94.6443 31.5202 92.9043 38.1202 105.454C44.7202 118.004 50.8002 131.384 50.8002 131.384L68.3402 123.384L75.9902 145.634C75.9902 145.634 53.5802 162.364 42.4602 159.854C31.3402 157.344 16.8002 128.544 16.0602 127.504C15.3202 126.464 5.64023 102.004 17.8002 95.0843Z" fill="#E0E0E0"/>
<path d="M17.8003 95.0841L17.3603 95.4041L16.8003 95.7741C16.5903 95.9341 16.3703 96.1441 16.1003 96.3741C14.5807 97.7469 13.4553 99.5007 12.8403 101.454C11.0703 106.504 11.6803 114.534 14.7003 123.534C15.0803 124.654 15.5003 125.804 16.0003 126.934L17.8503 130.264C19.1103 132.544 20.467 134.877 21.9203 137.264C24.9662 142.387 28.4208 147.257 32.2503 151.824C34.2925 154.302 36.6921 156.462 39.3703 158.234C40.752 159.112 42.3281 159.637 43.9603 159.764C45.6394 159.857 47.3232 159.709 48.9603 159.324C52.3389 158.514 55.6136 157.32 58.7203 155.764C61.9469 154.199 65.088 152.463 68.1303 150.564C70.7903 148.904 73.3803 147.184 75.8503 145.384L75.7603 145.674C73.1003 137.944 70.5403 130.484 68.1203 123.414L68.4503 123.564L50.9003 131.564L50.7003 131.654L50.6003 131.454C47.2803 124.184 44.1003 117.584 41.1903 111.774L39.0503 107.574C38.7103 106.894 38.3603 106.234 38.0503 105.574L36.9603 103.734C35.5873 101.569 33.8038 99.6938 31.7103 98.2141C30.0257 97.0156 28.1438 96.122 26.1503 95.5741C24.6763 95.1532 23.1606 94.895 21.6303 94.8041C20.6836 94.7458 19.7337 94.7658 18.7903 94.8641C18.5483 94.8907 18.3079 94.9308 18.0703 94.9841L17.8303 95.0441C17.9018 94.9999 17.9793 94.9662 18.0603 94.9441C18.2203 94.9441 18.4603 94.8441 18.7803 94.7941C19.7282 94.6698 20.685 94.6263 21.6403 94.6641C23.1818 94.7325 24.711 94.9706 26.2003 95.3741C28.2187 95.9166 30.1273 96.8066 31.8403 98.0041C33.9695 99.4976 35.7896 101.389 37.2003 103.574L38.3103 105.434L39.3103 107.434L41.4703 111.624C44.4103 117.424 47.6203 124.014 50.9603 131.284L50.6603 131.174C56.1503 128.654 62.0103 125.954 68.2003 123.124L68.4403 123.004L68.5303 123.264L76.2003 145.514L76.2603 145.694L76.1103 145.804C73.617 147.624 71.0303 149.361 68.3503 151.014C65.2926 152.925 62.1347 154.671 58.8903 156.244C55.7492 157.816 52.4374 159.021 49.0203 159.834C47.3366 160.224 45.6059 160.373 43.8803 160.274C42.1717 160.143 40.5223 159.59 39.0803 158.664C37.6809 157.796 36.3711 156.791 35.1703 155.664C34.0001 154.566 32.8918 153.405 31.8503 152.184C28.013 147.585 24.555 142.682 21.5103 137.524C20.0603 135.124 18.7203 132.764 17.4603 130.524L15.6103 127.154C15.1003 125.994 14.6903 124.844 14.3103 123.714C12.9304 119.597 12.0475 115.33 11.6803 111.004C11.3476 107.75 11.688 104.461 12.6803 101.344C13.3269 99.3734 14.4949 97.6146 16.0603 96.2541C16.3303 96.0341 16.5703 95.8241 16.7903 95.6741L17.3603 95.3141C17.6403 95.1641 17.8003 95.0841 17.8003 95.0841Z" fill="#263238"/>
<path d="M77.9202 34.1139C77.3121 32.7867 76.2475 31.722 74.9202 31.1139C62.2202 25.5639 47.5402 25.9339 34.2602 29.8539C30.8102 30.8539 27.1102 32.3839 25.4602 35.6139V35.8339C24.7502 37.9439 25.8002 40.6639 27.4102 42.1839C29.1094 43.6221 31.1295 44.6304 33.3002 45.1239C43.4102 48.0239 54.1902 47.3539 64.5902 45.7839C67.0449 45.4914 69.4596 44.9279 71.7902 44.1039C74.1369 43.2714 76.1952 41.7823 77.7202 39.8139C78.297 38.9832 78.6225 38.004 78.6579 36.9933C78.6934 35.9826 78.4373 34.9831 77.9202 34.1139Z" fill="#FF725E"/>
<g opacity="0.3">
<path d="M77.9202 34.1139C77.3121 32.7867 76.2475 31.722 74.9202 31.1139C62.2202 25.5639 47.5402 25.9339 34.2602 29.8539C30.8102 30.8539 27.1102 32.3839 25.4602 35.6139V35.8339C24.7502 37.9439 25.8002 40.6639 27.4102 42.1839C29.1094 43.6221 31.1295 44.6304 33.3002 45.1239C43.4102 48.0239 54.1902 47.3539 64.5902 45.7839C67.0449 45.4914 69.4596 44.9279 71.7902 44.1039C74.1369 43.2714 76.1952 41.7823 77.7202 39.8139C78.297 38.9832 78.6225 38.004 78.6579 36.9933C78.6934 35.9826 78.4373 34.9831 77.9202 34.1139Z" fill="black"/>
</g>
<path d="M35.8303 56.7242C34.0529 52.3968 32.6544 47.9234 31.6503 43.3542C30.6568 38.7643 30.8114 34.0001 32.1003 29.4842C32.3203 28.8042 34.2103 24.2542 34.9203 24.2942C35.4203 24.2942 34.3303 28.5342 34.6003 28.9542C37.1062 33.1316 38.2816 37.9727 37.9703 42.8342C37.7727 47.5291 37.055 52.1876 35.8303 56.7242Z" fill="#263238"/>
<path d="M73.1704 35.7442C72.7694 30.4943 70.4109 25.5865 66.5622 21.9934C62.7135 18.4004 57.6555 16.3841 52.3904 16.3442H51.3104C39.6004 16.9542 33.5804 27.2442 34.5204 38.9342L36.3204 75.2042L59.8304 85.3142L63.1504 78.4542C63.1504 78.4542 63.0504 75.4542 63.0704 75.4542C63.0904 75.4542 74.3304 73.7742 74.5404 62.5242C74.6404 57.0842 73.9304 45.8742 73.1704 35.7442Z" fill="#FFBF9D"/>
<path d="M63.0702 75.4439C57.8722 75.3946 52.7978 73.8535 48.4502 71.0039C48.4502 71.0039 51.9202 79.3739 63.1502 78.4239L63.0702 75.4439Z" fill="#FF9A6C"/>
<path d="M68.2206 45.5342C68.2233 45.9534 68.0614 46.357 67.7697 46.658C67.4779 46.9591 67.0797 47.1337 66.6606 47.1442C66.4561 47.1605 66.2503 47.1353 66.0559 47.07C65.8614 47.0047 65.6821 46.9007 65.5288 46.7643C65.3756 46.6279 65.2516 46.4618 65.1642 46.2762C65.0769 46.0906 65.028 45.8892 65.0205 45.6842C65.0177 45.2666 65.1783 44.8645 65.4679 44.5637C65.7575 44.2629 66.1532 44.0872 66.5705 44.0742C66.7755 44.0578 66.9818 44.083 67.1768 44.1482C67.3719 44.2134 67.5518 44.3172 67.7058 44.4535C67.8598 44.5898 67.9848 44.7557 68.0732 44.9414C68.1617 45.1271 68.2118 45.3287 68.2206 45.5342Z" fill="#263238"/>
<path d="M70.7406 40.3941C70.5406 40.6041 69.3305 39.6941 67.6005 39.6941C65.8705 39.6941 64.6006 40.5441 64.4106 40.3341C64.2206 40.1241 64.5306 39.8541 65.0806 39.4641C65.8288 38.9465 66.7209 38.6771 67.6306 38.6941C68.5301 38.6933 69.4062 38.9807 70.1306 39.5141C70.6606 39.9241 70.8406 40.3041 70.7406 40.3941Z" fill="#263238"/>
<path d="M52.7406 45.4743C52.7434 45.8919 52.5828 46.294 52.2932 46.5948C52.0036 46.8956 51.6079 47.0713 51.1906 47.0843C50.9856 47.1006 50.7794 47.0755 50.5843 47.0103C50.3892 46.9451 50.2093 46.8413 50.0553 46.705C49.9013 46.5687 49.7763 46.4027 49.6879 46.2171C49.5994 46.0314 49.5493 45.8298 49.5406 45.6243C49.5378 45.2051 49.6997 44.8015 49.9915 44.5004C50.2832 44.1993 50.6814 44.0248 51.1006 44.0143C51.3048 43.9994 51.5099 44.0256 51.7038 44.0915C51.8977 44.1573 52.0764 44.2613 52.2293 44.3975C52.3823 44.5336 52.5063 44.6991 52.5942 44.8841C52.682 45.069 52.7317 45.2697 52.7406 45.4743Z" fill="#263238"/>
<path d="M53.8006 41.0043C53.6006 41.2143 52.3906 40.3043 50.6606 40.3043C48.9306 40.3043 47.6606 41.1543 47.4706 40.9443C47.2806 40.7343 47.5906 40.4643 48.1406 40.0743C48.8928 39.556 49.7872 39.2835 50.7006 39.2943C51.5974 39.3013 52.469 39.5918 53.1906 40.1243C53.7406 40.5243 53.9006 40.9043 53.8006 41.0043Z" fill="#263238"/>
<path d="M59.9302 54.3143C60.8433 54.0364 61.787 53.8719 62.7402 53.8243C63.1802 53.8243 63.6002 53.6943 63.6702 53.3943C63.714 52.9392 63.6162 52.4817 63.3902 52.0843L62.1002 48.7143C60.3202 43.9243 59.0302 39.9743 59.2202 39.9043C59.4102 39.8343 61.0202 43.6643 62.8002 48.4643L64.0302 51.8543C64.3088 52.3858 64.3869 52.9999 64.2502 53.5843C64.1856 53.7407 64.0863 53.8805 63.9598 53.9931C63.8334 54.1057 63.6831 54.1881 63.5202 54.2343C63.2743 54.2931 63.023 54.3266 62.7702 54.3343C61.8266 54.4498 60.8721 54.4431 59.9302 54.3143Z" fill="#263238"/>
<path d="M54.8303 55.484C55.1103 55.484 55.1003 57.344 56.7003 58.684C58.3003 60.024 60.3003 59.834 60.3103 60.094C60.3203 60.354 59.8703 60.454 59.0203 60.474C57.9261 60.4783 56.8648 60.0998 56.0203 59.404C55.2023 58.737 54.6811 57.7737 54.5702 56.724C54.4902 55.934 54.7403 55.474 54.8303 55.484Z" fill="#263238"/>
<path d="M53.7402 34.0041C53.5702 34.4641 51.8402 34.2341 49.8102 34.4641C47.7802 34.6941 46.1402 35.2441 45.8702 34.8241C45.7502 34.6141 46.0402 34.1741 46.7002 33.7241C47.5843 33.1642 48.5883 32.8215 49.6302 32.7241C50.6692 32.6003 51.7227 32.7307 52.7002 33.1041C53.4502 33.3841 53.8202 33.7541 53.7402 34.0041Z" fill="#263238"/>
<path d="M70.0603 34.644C69.7503 35.034 68.5704 34.644 67.1304 34.644C65.6904 34.644 64.4903 34.894 64.2103 34.484C64.0903 34.284 64.2803 33.884 64.8203 33.484C65.5341 33.0432 66.3627 32.8241 67.2011 32.8543C68.0395 32.8846 68.8502 33.1629 69.5303 33.654C70.0303 34.054 70.2003 34.454 70.0603 34.644Z" fill="#263238"/>
<path d="M35.3906 47.2643C35.2006 47.1843 27.6706 44.9343 27.8706 52.6243C28.0706 60.3143 36.3306 58.6243 36.3406 58.4343C36.3506 58.2443 35.3906 47.2643 35.3906 47.2643Z" fill="#FFBF9D"/>
<path d="M33.3305 55.4544C33.3305 55.4544 33.2005 55.5544 32.9805 55.6644C32.6601 55.7955 32.3009 55.7955 31.9805 55.6644C31.1605 55.3844 30.4405 54.1144 30.3705 52.7244C30.333 52.0653 30.4423 51.4061 30.6905 50.7944C30.7652 50.5599 30.895 50.3468 31.069 50.1728C31.2429 49.9988 31.4561 49.869 31.6905 49.7944C31.8425 49.7467 32.0065 49.7547 32.1531 49.817C32.2998 49.8793 32.4194 49.9918 32.4905 50.1344C32.6005 50.3544 32.5605 50.5044 32.6005 50.5144C32.6405 50.5244 32.7605 50.3844 32.6905 50.0644C32.641 49.8756 32.528 49.7097 32.3705 49.5944C32.1573 49.4391 31.8913 49.3744 31.6305 49.4144C31.317 49.4873 31.0271 49.6384 30.7875 49.8534C30.548 50.0684 30.3667 50.3405 30.2605 50.6444C29.9509 51.3205 29.8102 52.0618 29.8505 52.8044C29.9405 54.3544 30.7705 55.8044 31.8505 56.0744C32.0587 56.1303 32.2769 56.1377 32.4884 56.0961C32.6999 56.0545 32.899 55.965 33.0705 55.8344C33.3305 55.6444 33.3605 55.4744 33.3305 55.4544Z" fill="#FF9A6C"/>
<path d="M67.7406 23.1739C68.9606 22.4439 65.0906 18.5439 61.9806 17.2639C57.2906 15.3239 50.1806 14.2639 45.9806 15.6339C40.9006 17.2739 36.7306 19.9739 34.3106 24.7339C31.9973 29.576 31.0136 34.9463 31.4606 40.2939C31.4554 41.9505 31.8977 43.5778 32.7406 45.0039C33.8806 46.6739 35.9706 47.6739 35.9706 50.0039C35.9543 50.4299 36.0238 50.8548 36.175 51.2533C36.3262 51.6519 36.5559 52.0159 36.8506 52.3239C38.3106 53.7739 39.9806 52.3239 40.7206 50.8739C42.3106 47.8039 42.3706 44.1939 42.4006 40.7439C42.553 38.2865 42.3031 35.8207 41.6606 33.4439C41.2406 32.1739 40.5906 30.9839 40.2406 29.6939C40.0262 29.0591 39.9518 28.3853 40.0225 27.719C40.0933 27.0527 40.3076 26.4096 40.6506 25.8339C40.8349 25.6033 41.0355 25.3861 41.2506 25.1839C42.2899 24.2077 43.5712 23.527 44.962 23.2123C46.3527 22.8976 47.8023 22.9603 49.1606 23.3939C53.5406 24.7739 61.0206 26.8039 62.9006 25.2639C65.6006 23.0539 66.2206 21.6539 66.2206 21.6539L67.7406 23.1739Z" fill="#263238"/>
<path d="M73.8003 34.784C69.9997 32.521 65.682 31.2712 61.2603 31.154C41.7903 31.094 30.7403 38.004 30.7403 38.004L30.3403 32.624C30.3403 32.624 58.9203 27.554 59.1103 27.544C59.3003 27.534 67.8503 29.124 68.0503 29.194C68.2503 29.264 73.3103 30.194 73.3103 30.194L73.8003 34.784Z" fill="#455A64"/>
<path d="M78.6302 35.8741C78.6302 35.8741 73.8702 27.4541 51.7402 30.0041C28.5502 32.6541 25.6002 38.7041 25.6002 38.7041C25.6002 38.7041 23.9302 33.4741 27.7502 30.8541C27.9303 24.474 30.2275 18.3351 34.2802 13.4041C36.6702 10.6441 40.9702 8.29414 41.8702 7.55414L42.0102 6.00414C42.0102 6.00414 43.6402 4.15414 51.4802 4.00414C59.5702 3.88414 61.1802 6.41414 61.1802 6.41414L61.3602 7.79414C61.3602 7.79414 73.8202 13.6341 74.7402 29.7141C74.7402 29.7141 79.1502 32.6641 78.6302 35.8741Z" fill="#FF725E"/>
<g opacity="0.3">
<path d="M42.0306 6.00391C43.3206 7.54391 45.5506 10.2039 45.9506 12.4439C46.288 14.7082 46.4551 16.9946 46.4506 19.2839C45.1206 11.7639 44.0306 10.6739 41.8906 7.55391L42.0306 6.00391Z" fill="black"/>
</g>
<path d="M27.7402 30.834C27.8763 30.7437 28.0244 30.673 28.1802 30.624L29.4802 30.094C30.0502 29.854 30.7502 29.594 31.5802 29.334C32.4102 29.074 33.3402 28.734 34.4002 28.474C39.9092 26.9796 45.5605 26.0712 51.2602 25.764C56.9551 25.3445 62.6807 25.7486 68.2602 26.964C69.3102 27.264 70.2602 27.544 71.0902 27.844C71.9202 28.144 72.5902 28.454 73.0902 28.744L74.3002 29.474C74.4464 29.5474 74.5811 29.6418 74.7002 29.754C74.7002 29.754 74.5402 29.754 74.2502 29.564L73.0102 28.924C72.4602 28.664 71.7502 28.434 70.9502 28.114C70.1502 27.794 69.1802 27.604 68.1302 27.324C62.5673 26.2337 56.8829 25.8974 51.2302 26.324C45.5653 26.6392 39.9433 27.493 34.4402 28.874C33.3702 29.104 32.4402 29.424 31.6102 29.654C30.7802 29.884 30.0602 30.114 29.4902 30.324L28.1602 30.754C28.0248 30.8005 27.8833 30.8275 27.7402 30.834Z" fill="#263238"/>
<path d="M42.0303 6.00391C42.5867 6.4332 43.0872 6.9304 43.5203 7.48391C44.7267 8.7067 45.6337 10.1921 46.1703 11.8239C46.6368 13.4473 46.8294 15.1371 46.7403 16.8239C46.7514 17.5295 46.6467 18.2322 46.4303 18.9039C46.3495 18.2103 46.3294 17.511 46.3703 16.8139C46.3542 15.1601 46.1188 13.5158 45.6703 11.9239C45.1454 10.3592 44.32 8.91209 43.2403 7.66391C42.7701 7.16249 42.3637 6.60493 42.0303 6.00391Z" fill="#263238"/>
<g opacity="0.3">
<path d="M41.8703 11.2439C41.9247 10.8986 41.8575 10.5452 41.6803 10.2439C41.5742 10.1229 41.4372 10.033 41.284 9.98372C41.1308 9.93441 40.9671 9.92757 40.8103 9.96392C40.504 10.0563 40.2163 10.2019 39.9603 10.3939C37.1161 12.4509 34.7419 15.0893 32.9954 18.1341C31.2489 21.1788 30.17 24.5603 29.8303 28.0539C29.8175 28.1293 29.8267 28.2068 29.8566 28.2772C29.8865 28.3476 29.9359 28.4079 29.999 28.4511C30.0622 28.4942 30.1364 28.5184 30.2128 28.5206C30.2893 28.5229 30.3647 28.5032 30.4303 28.4639C33.0007 27.0337 35.7821 26.021 38.6703 25.4639C39.6103 25.2639 40.9804 25.3439 41.3804 24.3539C41.5898 23.7501 41.6847 23.1125 41.6604 22.4739L41.8703 11.2439Z" fill="white"/>
</g>
<path d="M61.5504 15.664C61.3653 14.1616 61.3084 12.6461 61.3805 11.134C61.2726 9.62482 61.296 8.10913 61.4504 6.604C61.8156 8.08484 61.9671 9.61027 61.9004 11.134C62.0026 12.653 61.8847 14.1788 61.5504 15.664Z" fill="#263238"/>
</svg>
