<svg width="2737" height="1348" viewBox="0 0 2737 1348" fill="none" xmlns="http://www.w3.org/2000/svg">
<path d="M865.47 0.100098H23.5102C10.7502 0.100098 0.410156 10.4401 0.410156 23.2001V1324.52C0.410156 1337.28 10.7502 1347.62 23.5102 1347.62H104.17C116.93 1347.62 127.27 1337.28 127.27 1324.52V727.76C127.27 715 137.61 704.66 150.37 704.66H865.46C878.22 704.66 888.56 694.32 888.56 681.56V23.2101C888.56 10.4501 878.22 0.110107 865.46 0.110107L865.47 0.100098ZM738.6 576.57H150.38C137.62 576.57 127.28 566.23 127.28 553.47V151.3C127.28 138.54 137.62 128.2 150.38 128.2H738.6C751.36 128.2 761.7 138.54 761.7 151.3V553.47C761.7 566.23 751.36 576.57 738.6 576.57Z" fill="#0D2C5A"/>
<path d="M358.181 840.08H245.301C241.435 840.08 238.301 843.214 238.301 847.08V1340.61C238.301 1344.48 241.435 1347.61 245.301 1347.61H358.181C362.047 1347.61 365.181 1344.48 365.181 1340.61V847.08C365.181 843.214 362.047 840.08 358.181 840.08Z" fill="#E8772E"/>
<path d="M611.95 981.28H499.07C495.204 981.28 492.07 984.414 492.07 988.28V1340.61C492.07 1344.48 495.204 1347.61 499.07 1347.61H611.95C615.816 1347.61 618.95 1344.48 618.95 1340.61V988.28C618.95 984.414 615.816 981.28 611.95 981.28Z" fill="#E8772E"/>
<path d="M881.58 840.08H752.84C748.974 840.08 745.84 843.214 745.84 847.08V1340.61C745.84 1344.48 748.974 1347.61 752.84 1347.61H881.58C885.446 1347.61 888.58 1344.48 888.58 1340.61V847.08C888.58 843.214 885.446 840.08 881.58 840.08Z" fill="#E8772E"/>
<path d="M1483.04 439.68C1483.04 452.693 1480.05 464.64 1474.08 475.52C1468.11 486.187 1458.93 494.827 1446.56 501.44C1434.19 508.053 1418.83 511.36 1400.48 511.36H1366.56V592H1311.84V367.36H1400.48C1418.4 367.36 1433.55 370.453 1445.92 376.64C1458.29 382.827 1467.57 391.36 1473.76 402.24C1479.95 413.12 1483.04 425.6 1483.04 439.68ZM1396.32 467.84C1406.77 467.84 1414.56 465.387 1419.68 460.48C1424.8 455.573 1427.36 448.64 1427.36 439.68C1427.36 430.72 1424.8 423.787 1419.68 418.88C1414.56 413.973 1406.77 411.52 1396.32 411.52H1366.56V467.84H1396.32ZM1592.81 594.56C1575.31 594.56 1559.53 590.827 1545.45 583.36C1531.58 575.893 1520.59 565.227 1512.49 551.36C1504.59 537.493 1500.65 521.28 1500.65 502.72C1500.65 484.373 1504.7 468.267 1512.81 454.4C1520.91 440.32 1532.01 429.547 1546.09 422.08C1560.17 414.613 1575.95 410.88 1593.45 410.88C1610.94 410.88 1626.73 414.613 1640.81 422.08C1654.89 429.547 1665.98 440.32 1674.09 454.4C1682.19 468.267 1686.25 484.373 1686.25 502.72C1686.25 521.067 1682.09 537.28 1673.77 551.36C1665.66 565.227 1654.46 575.893 1640.17 583.36C1626.09 590.827 1610.3 594.56 1592.81 594.56ZM1592.81 547.2C1603.26 547.2 1612.11 543.36 1619.37 535.68C1626.83 528 1630.57 517.013 1630.57 502.72C1630.57 488.427 1626.94 477.44 1619.69 469.76C1612.65 462.08 1603.9 458.24 1593.45 458.24C1582.78 458.24 1573.93 462.08 1566.89 469.76C1559.85 477.227 1556.33 488.213 1556.33 502.72C1556.33 517.013 1559.74 528 1566.57 535.68C1573.61 543.36 1582.35 547.2 1592.81 547.2ZM1824.08 411.52C1844.98 411.52 1861.62 418.347 1874 432C1886.58 445.44 1892.88 464 1892.88 487.68V592H1838.48V495.04C1838.48 483.093 1835.38 473.813 1829.2 467.2C1823.01 460.587 1814.69 457.28 1804.24 457.28C1793.78 457.28 1785.46 460.587 1779.28 467.2C1773.09 473.813 1770 483.093 1770 495.04V592H1715.28V413.44H1770V437.12C1775.54 429.227 1783.01 423.04 1792.4 418.56C1801.78 413.867 1812.34 411.52 1824.08 411.52ZM2107.22 413.44V592H2052.5V567.68C2046.96 575.573 2039.38 581.973 2029.78 586.88C2020.4 591.573 2009.94 593.92 1998.42 593.92C1984.77 593.92 1972.72 590.933 1962.26 584.96C1951.81 578.773 1943.7 569.92 1937.94 558.4C1932.18 546.88 1929.3 533.333 1929.3 517.76V413.44H1983.7V510.4C1983.7 522.347 1986.8 531.627 1992.98 538.24C1999.17 544.853 2007.49 548.16 2017.94 548.16C2028.61 548.16 2037.04 544.853 2043.22 538.24C2049.41 531.627 2052.5 522.347 2052.5 510.4V413.44H2107.22ZM2135.65 502.4C2135.65 484.053 2139.06 467.947 2145.89 454.08C2152.93 440.213 2162.42 429.547 2174.37 422.08C2186.31 414.613 2199.65 410.88 2214.37 410.88C2226.1 410.88 2236.77 413.333 2246.37 418.24C2256.18 423.147 2263.86 429.76 2269.41 438.08V355.2H2324.13V592H2269.41V566.4C2264.29 574.933 2256.93 581.76 2247.33 586.88C2237.94 592 2226.95 594.56 2214.37 594.56C2199.65 594.56 2186.31 590.827 2174.37 583.36C2162.42 575.68 2152.93 564.907 2145.89 551.04C2139.06 536.96 2135.65 520.747 2135.65 502.4ZM2269.41 502.72C2269.41 489.067 2265.57 478.293 2257.89 470.4C2250.42 462.507 2241.25 458.56 2230.37 458.56C2219.49 458.56 2210.21 462.507 2202.53 470.4C2195.06 478.08 2191.33 488.747 2191.33 502.4C2191.33 516.053 2195.06 526.933 2202.53 535.04C2210.21 542.933 2219.49 546.88 2230.37 546.88C2241.25 546.88 2250.42 542.933 2257.89 535.04C2265.57 527.147 2269.41 516.373 2269.41 502.72ZM2352.84 502.4C2352.84 484.053 2356.25 467.947 2363.08 454.08C2370.12 440.213 2379.61 429.547 2391.56 422.08C2403.5 414.613 2416.84 410.88 2431.56 410.88C2444.14 410.88 2455.13 413.44 2464.52 418.56C2474.12 423.68 2481.48 430.4 2486.6 438.72V413.44H2541.32V592H2486.6V566.72C2481.26 575.04 2473.8 581.76 2464.2 586.88C2454.81 592 2443.82 594.56 2431.24 594.56C2416.73 594.56 2403.5 590.827 2391.56 583.36C2379.61 575.68 2370.12 564.907 2363.08 551.04C2356.25 536.96 2352.84 520.747 2352.84 502.4ZM2486.6 502.72C2486.6 489.067 2482.76 478.293 2475.08 470.4C2467.61 462.507 2458.44 458.56 2447.56 458.56C2436.68 458.56 2427.4 462.507 2419.72 470.4C2412.25 478.08 2408.52 488.747 2408.52 502.4C2408.52 516.053 2412.25 526.933 2419.72 535.04C2427.4 542.933 2436.68 546.88 2447.56 546.88C2458.44 546.88 2467.61 542.933 2475.08 535.04C2482.76 527.147 2486.6 516.373 2486.6 502.72Z" fill="#0D2C5A"/>
<path d="M1540.24 756.36V981H1485.52V846.28L1435.28 981H1391.12L1340.56 845.96V981H1285.84V756.36H1350.48L1413.52 911.88L1475.92 756.36H1540.24ZM1568.71 891.4C1568.71 873.053 1572.12 856.947 1578.95 843.08C1585.99 829.213 1595.48 818.547 1607.43 811.08C1619.38 803.613 1632.71 799.88 1647.43 799.88C1660.02 799.88 1671 802.44 1680.39 807.56C1689.99 812.68 1697.35 819.4 1702.47 827.72V802.44H1757.19V981H1702.47V955.72C1697.14 964.04 1689.67 970.76 1680.07 975.88C1670.68 981 1659.7 983.56 1647.11 983.56C1632.6 983.56 1619.38 979.827 1607.43 972.36C1595.48 964.68 1585.99 953.907 1578.95 940.04C1572.12 925.96 1568.71 909.747 1568.71 891.4ZM1702.47 891.72C1702.47 878.067 1698.63 867.293 1690.95 859.4C1683.48 851.507 1674.31 847.56 1663.43 847.56C1652.55 847.56 1643.27 851.507 1635.59 859.4C1628.12 867.08 1624.39 877.747 1624.39 891.4C1624.39 905.053 1628.12 915.933 1635.59 924.04C1643.27 931.933 1652.55 935.88 1663.43 935.88C1674.31 935.88 1683.48 931.933 1690.95 924.04C1698.63 916.147 1702.47 905.373 1702.47 891.72ZM1823.98 783.88C1814.38 783.88 1806.48 781.107 1800.3 775.56C1794.32 769.8 1791.34 762.76 1791.34 754.44C1791.34 745.907 1794.32 738.867 1800.3 733.32C1806.48 727.56 1814.38 724.68 1823.98 724.68C1833.36 724.68 1841.04 727.56 1847.02 733.32C1853.2 738.867 1856.3 745.907 1856.3 754.44C1856.3 762.76 1853.2 769.8 1847.02 775.56C1841.04 781.107 1833.36 783.88 1823.98 783.88ZM1851.5 1004.04C1851.5 1026.01 1845.95 1041.8 1834.86 1051.4C1823.76 1061.21 1808.3 1066.12 1788.46 1066.12H1767.02V1019.72H1780.14C1786.11 1019.72 1790.38 1018.55 1792.94 1016.2C1795.5 1013.85 1796.78 1010.01 1796.78 1004.68V802.44H1851.5V1004.04ZM1963.48 983.56C1947.91 983.56 1934.04 980.893 1921.88 975.56C1909.72 970.227 1900.12 962.973 1893.08 953.8C1886.04 944.413 1882.09 933.96 1881.24 922.44H1935.32C1935.96 928.627 1938.84 933.64 1943.96 937.48C1949.08 941.32 1955.37 943.24 1962.84 943.24C1969.67 943.24 1974.89 941.96 1978.52 939.4C1982.36 936.627 1984.28 933.107 1984.28 928.84C1984.28 923.72 1981.61 919.987 1976.28 917.64C1970.95 915.08 1962.31 912.307 1950.36 909.32C1937.56 906.333 1926.89 903.24 1918.36 900.04C1909.83 896.627 1902.47 891.4 1896.28 884.36C1890.09 877.107 1887 867.4 1887 855.24C1887 845 1889.77 835.72 1895.32 827.4C1901.08 818.867 1909.4 812.147 1920.28 807.24C1931.37 802.333 1944.49 799.88 1959.64 799.88C1982.04 799.88 1999.64 805.427 2012.44 816.52C2025.45 827.613 2032.92 842.333 2034.84 860.68H1984.28C1983.43 854.493 1980.65 849.587 1975.96 845.96C1971.48 842.333 1965.51 840.52 1958.04 840.52C1951.64 840.52 1946.73 841.8 1943.32 844.36C1939.91 846.707 1938.2 850.013 1938.2 854.28C1938.2 859.4 1940.87 863.24 1946.2 865.8C1951.75 868.36 1960.28 870.92 1971.8 873.48C1985.03 876.893 1995.8 880.307 2004.12 883.72C2012.44 886.92 2019.69 892.253 2025.88 899.72C2032.28 906.973 2035.59 916.787 2035.8 929.16C2035.8 939.613 2032.81 949 2026.84 957.32C2021.08 965.427 2012.65 971.827 2001.56 976.52C1990.68 981.213 1977.99 983.56 1963.48 983.56ZM2168.8 934.6V981H2140.96C2121.12 981 2105.65 976.2 2094.56 966.6C2083.46 956.787 2077.92 940.893 2077.92 918.92V847.88H2056.16V802.44H2077.92V758.92H2132.64V802.44H2168.48V847.88H2132.64V919.56C2132.64 924.893 2133.92 928.733 2136.48 931.08C2139.04 933.427 2143.3 934.6 2149.28 934.6H2168.8ZM2280.56 983.56C2263.06 983.56 2247.28 979.827 2233.2 972.36C2219.33 964.893 2208.34 954.227 2200.24 940.36C2192.34 926.493 2188.4 910.28 2188.4 891.72C2188.4 873.373 2192.45 857.267 2200.56 843.4C2208.66 829.32 2219.76 818.547 2233.84 811.08C2247.92 803.613 2263.7 799.88 2281.2 799.88C2298.69 799.88 2314.48 803.613 2328.56 811.08C2342.64 818.547 2353.73 829.32 2361.84 843.4C2369.94 857.267 2374 873.373 2374 891.72C2374 910.067 2369.84 926.28 2361.52 940.36C2353.41 954.227 2342.21 964.893 2327.92 972.36C2313.84 979.827 2298.05 983.56 2280.56 983.56ZM2280.56 936.2C2291.01 936.2 2299.86 932.36 2307.12 924.68C2314.58 917 2318.32 906.013 2318.32 891.72C2318.32 877.427 2314.69 866.44 2307.44 858.76C2300.4 851.08 2291.65 847.24 2281.2 847.24C2270.53 847.24 2261.68 851.08 2254.64 858.76C2247.6 866.227 2244.08 877.213 2244.08 891.72C2244.08 906.013 2247.49 917 2254.32 924.68C2261.36 932.36 2270.1 936.2 2280.56 936.2ZM2457.75 832.2C2464.15 822.387 2472.15 814.707 2481.75 809.16C2491.35 803.4 2502.01 800.52 2513.75 800.52V858.44H2498.71C2485.05 858.44 2474.81 861.427 2467.99 867.4C2461.16 873.16 2457.75 883.4 2457.75 898.12V981H2403.03V802.44H2457.75V832.2ZM2529.02 891.4C2529.02 873.053 2532.44 856.947 2539.26 843.08C2546.3 829.213 2555.8 818.547 2567.74 811.08C2579.69 803.613 2593.02 799.88 2607.74 799.88C2620.33 799.88 2631.32 802.44 2640.7 807.56C2650.3 812.68 2657.66 819.4 2662.78 827.72V802.44H2717.5V981H2662.78V955.72C2657.45 964.04 2649.98 970.76 2640.38 975.88C2631 981 2620.01 983.56 2607.42 983.56C2592.92 983.56 2579.69 979.827 2567.74 972.36C2555.8 964.68 2546.3 953.907 2539.26 940.04C2532.44 925.96 2529.02 909.747 2529.02 891.4ZM2662.78 891.72C2662.78 878.067 2658.94 867.293 2651.26 859.4C2643.8 851.507 2634.62 847.56 2623.74 847.56C2612.86 847.56 2603.58 851.507 2595.9 859.4C2588.44 867.08 2584.7 877.747 2584.7 891.4C2584.7 905.053 2588.44 915.933 2595.9 924.04C2603.58 931.933 2612.86 935.88 2623.74 935.88C2634.62 935.88 2643.8 931.933 2651.26 924.04C2658.94 916.147 2662.78 905.373 2662.78 891.72Z" fill="#0D2C5A"/>
<path d="M1154.79 240H1101.21C1097.23 240 1094 243.715 1094 248.298V1100.7C1094 1105.28 1097.23 1109 1101.21 1109H1154.79C1158.77 1109 1162 1105.28 1162 1100.7V248.298C1162 243.715 1158.77 240 1154.79 240Z" fill="#0D2C5A"/>
</svg>
